<mxfile host="65bd71144e">
    <diagram id="bDAtUGKiayvw8WqMW5wn" name="PÃ¡gina-1">
        <mxGraphModel dx="637" dy="478" grid="1" gridSize="10" guides="1" tooltips="1" connect="1" arrows="1" fold="1" page="1" pageScale="1" pageWidth="827" pageHeight="1169" math="0" shadow="0">
            <root>
                <mxCell id="0"/>
                <mxCell id="1" parent="0"/>
                <mxCell id="58" style="edgeStyle=none;rounded=1;html=1;entryX=0.5;entryY=0;entryDx=0;entryDy=0;fontFamily=Helvetica;fontSize=12;fontColor=default;endArrow=none;endFill=0;targetPerimeterSpacing=0;strokeWidth=1;" edge="1" parent="1" source="29" target="41">
                    <mxGeometry relative="1" as="geometry"/>
                </mxCell>
                <mxCell id="29" value="Produtos" style="swimlane;fontStyle=0;childLayout=stackLayout;horizontal=1;startSize=26;fillColor=none;horizontalStack=0;resizeParent=1;resizeParentMax=0;resizeLast=0;collapsible=1;marginBottom=0;shadow=0;sketch=0;pointerEvents=1;fontFamily=Helvetica;fontSize=12;fontColor=default;strokeColor=default;html=1;" vertex="1" parent="1">
                    <mxGeometry x="80" y="40" width="140" height="208" as="geometry">
                        <mxRectangle x="80" y="40" width="80" height="26" as="alternateBounds"/>
                    </mxGeometry>
                </mxCell>
                <mxCell id="30" value="id" style="text;strokeColor=none;fillColor=none;align=left;verticalAlign=top;spacingLeft=4;spacingRight=4;overflow=hidden;rotatable=0;points=[[0,0.5],[1,0.5]];portConstraint=eastwest;shadow=0;sketch=0;pointerEvents=1;fontFamily=Helvetica;fontSize=12;fontColor=default;html=1;" vertex="1" parent="29">
                    <mxGeometry y="26" width="140" height="26" as="geometry"/>
                </mxCell>
                <mxCell id="31" value="codigo_barras" style="text;strokeColor=none;fillColor=none;align=left;verticalAlign=top;spacingLeft=4;spacingRight=4;overflow=hidden;rotatable=0;points=[[0,0.5],[1,0.5]];portConstraint=eastwest;shadow=0;sketch=0;pointerEvents=1;fontFamily=Helvetica;fontSize=12;fontColor=default;html=1;" vertex="1" parent="29">
                    <mxGeometry y="52" width="140" height="26" as="geometry"/>
                </mxCell>
                <mxCell id="32" value="rfid" style="text;strokeColor=none;fillColor=none;align=left;verticalAlign=top;spacingLeft=4;spacingRight=4;overflow=hidden;rotatable=0;points=[[0,0.5],[1,0.5]];portConstraint=eastwest;shadow=0;sketch=0;pointerEvents=1;fontFamily=Helvetica;fontSize=12;fontColor=default;html=1;" vertex="1" parent="29">
                    <mxGeometry y="78" width="140" height="26" as="geometry"/>
                </mxCell>
                <mxCell id="33" value="nome" style="text;strokeColor=none;fillColor=none;align=left;verticalAlign=top;spacingLeft=4;spacingRight=4;overflow=hidden;rotatable=0;points=[[0,0.5],[1,0.5]];portConstraint=eastwest;shadow=0;sketch=0;pointerEvents=1;fontFamily=Helvetica;fontSize=12;fontColor=default;html=1;" vertex="1" parent="29">
                    <mxGeometry y="104" width="140" height="26" as="geometry"/>
                </mxCell>
                <mxCell id="36" value="preco_venda" style="text;strokeColor=none;fillColor=none;align=left;verticalAlign=top;spacingLeft=4;spacingRight=4;overflow=hidden;rotatable=0;points=[[0,0.5],[1,0.5]];portConstraint=eastwest;shadow=0;sketch=0;pointerEvents=1;fontFamily=Helvetica;fontSize=12;fontColor=default;html=1;" vertex="1" parent="29">
                    <mxGeometry y="130" width="140" height="26" as="geometry"/>
                </mxCell>
                <mxCell id="35" value="preco_compra" style="text;strokeColor=none;fillColor=none;align=left;verticalAlign=top;spacingLeft=4;spacingRight=4;overflow=hidden;rotatable=0;points=[[0,0.5],[1,0.5]];portConstraint=eastwest;shadow=0;sketch=0;pointerEvents=1;fontFamily=Helvetica;fontSize=12;fontColor=default;html=1;" vertex="1" parent="29">
                    <mxGeometry y="156" width="140" height="26" as="geometry"/>
                </mxCell>
                <mxCell id="34" value="unidade_medida" style="text;strokeColor=none;fillColor=none;align=left;verticalAlign=top;spacingLeft=4;spacingRight=4;overflow=hidden;rotatable=0;points=[[0,0.5],[1,0.5]];portConstraint=eastwest;shadow=0;sketch=0;pointerEvents=1;fontFamily=Helvetica;fontSize=12;fontColor=default;html=1;" vertex="1" parent="29">
                    <mxGeometry y="182" width="140" height="26" as="geometry"/>
                </mxCell>
                <mxCell id="37" value="Categoria Produto" style="swimlane;fontStyle=0;childLayout=stackLayout;horizontal=1;startSize=26;fillColor=none;horizontalStack=0;resizeParent=1;resizeParentMax=0;resizeLast=0;collapsible=1;marginBottom=0;shadow=0;sketch=0;pointerEvents=1;fontFamily=Helvetica;fontSize=12;fontColor=default;strokeColor=default;html=1;" vertex="1" parent="1">
                    <mxGeometry x="310" y="40" width="140" height="104" as="geometry"/>
                </mxCell>
                <mxCell id="38" value="id" style="text;strokeColor=none;fillColor=none;align=left;verticalAlign=top;spacingLeft=4;spacingRight=4;overflow=hidden;rotatable=0;points=[[0,0.5],[1,0.5]];portConstraint=eastwest;shadow=0;sketch=0;pointerEvents=1;fontFamily=Helvetica;fontSize=12;fontColor=default;html=1;" vertex="1" parent="37">
                    <mxGeometry y="26" width="140" height="26" as="geometry"/>
                </mxCell>
                <mxCell id="39" value="nome" style="text;strokeColor=none;fillColor=none;align=left;verticalAlign=top;spacingLeft=4;spacingRight=4;overflow=hidden;rotatable=0;points=[[0,0.5],[1,0.5]];portConstraint=eastwest;shadow=0;sketch=0;pointerEvents=1;fontFamily=Helvetica;fontSize=12;fontColor=default;html=1;" vertex="1" parent="37">
                    <mxGeometry y="52" width="140" height="26" as="geometry"/>
                </mxCell>
                <mxCell id="40" value="descricao" style="text;strokeColor=none;fillColor=none;align=left;verticalAlign=top;spacingLeft=4;spacingRight=4;overflow=hidden;rotatable=0;points=[[0,0.5],[1,0.5]];portConstraint=eastwest;shadow=0;sketch=0;pointerEvents=1;fontFamily=Helvetica;fontSize=12;fontColor=default;html=1;" vertex="1" parent="37">
                    <mxGeometry y="78" width="140" height="26" as="geometry"/>
                </mxCell>
                <mxCell id="41" value="Estoque" style="swimlane;fontStyle=0;childLayout=stackLayout;horizontal=1;startSize=26;fillColor=none;horizontalStack=0;resizeParent=1;resizeParentMax=0;resizeLast=0;collapsible=1;marginBottom=0;shadow=0;sketch=0;pointerEvents=1;fontFamily=Helvetica;fontSize=12;fontColor=default;strokeColor=default;html=1;" vertex="1" parent="1">
                    <mxGeometry x="80" y="320" width="140" height="104" as="geometry"/>
                </mxCell>
                <mxCell id="42" value="id" style="text;strokeColor=none;fillColor=none;align=left;verticalAlign=top;spacingLeft=4;spacingRight=4;overflow=hidden;rotatable=0;points=[[0,0.5],[1,0.5]];portConstraint=eastwest;shadow=0;sketch=0;pointerEvents=1;fontFamily=Helvetica;fontSize=12;fontColor=default;html=1;" vertex="1" parent="41">
                    <mxGeometry y="26" width="140" height="26" as="geometry"/>
                </mxCell>
                <mxCell id="43" value="id_produto" style="text;strokeColor=none;fillColor=none;align=left;verticalAlign=top;spacingLeft=4;spacingRight=4;overflow=hidden;rotatable=0;points=[[0,0.5],[1,0.5]];portConstraint=eastwest;shadow=0;sketch=0;pointerEvents=1;fontFamily=Helvetica;fontSize=12;fontColor=default;html=1;" vertex="1" parent="41">
                    <mxGeometry y="52" width="140" height="26" as="geometry"/>
                </mxCell>
                <mxCell id="44" value="quantidade" style="text;strokeColor=none;fillColor=none;align=left;verticalAlign=top;spacingLeft=4;spacingRight=4;overflow=hidden;rotatable=0;points=[[0,0.5],[1,0.5]];portConstraint=eastwest;shadow=0;sketch=0;pointerEvents=1;fontFamily=Helvetica;fontSize=12;fontColor=default;html=1;" vertex="1" parent="41">
                    <mxGeometry y="78" width="140" height="26" as="geometry"/>
                </mxCell>
                <mxCell id="52" value="" style="endArrow=none;html=1;rounded=0;fontFamily=Helvetica;fontSize=12;fontColor=default;targetPerimeterSpacing=0;entryX=0;entryY=0.5;entryDx=0;entryDy=0;strokeWidth=1;" edge="1" parent="1" target="38">
                    <mxGeometry relative="1" as="geometry">
                        <mxPoint x="220" y="80" as="sourcePoint"/>
                        <mxPoint x="380" y="80" as="targetPoint"/>
                    </mxGeometry>
                </mxCell>
                <mxCell id="53" value="1" style="resizable=0;html=1;align=right;verticalAlign=bottom;shadow=0;sketch=0;pointerEvents=1;fontFamily=Helvetica;fontSize=12;fontColor=default;strokeColor=default;fillColor=none;" connectable="0" vertex="1" parent="52">
                    <mxGeometry x="1" relative="1" as="geometry">
                        <mxPoint as="offset"/>
                    </mxGeometry>
                </mxCell>
                <mxCell id="54" value="n" style="text;html=1;align=center;verticalAlign=middle;resizable=0;points=[];autosize=1;strokeColor=none;fillColor=none;fontSize=12;fontFamily=Helvetica;fontColor=default;" vertex="1" parent="1">
                    <mxGeometry x="220" y="60" width="20" height="20" as="geometry"/>
                </mxCell>
                <mxCell id="59" value="n" style="text;html=1;align=center;verticalAlign=middle;resizable=0;points=[];autosize=1;strokeColor=none;fillColor=none;fontSize=12;fontFamily=Helvetica;fontColor=default;" vertex="1" parent="1">
                    <mxGeometry x="150" y="248" width="20" height="20" as="geometry"/>
                </mxCell>
                <mxCell id="60" value="1" style="text;html=1;align=center;verticalAlign=middle;resizable=0;points=[];autosize=1;strokeColor=none;fillColor=none;fontSize=12;fontFamily=Helvetica;fontColor=default;" vertex="1" parent="1">
                    <mxGeometry x="150" y="300" width="20" height="20" as="geometry"/>
                </mxCell>
            </root>
        </mxGraphModel>
    </diagram>
</mxfile>